<?xml version="1.0" standalone="no"?>
<!DOCTYPE svg PUBLIC "-//W3C//DTD SVG 20010904//EN"
 "http://www.w3.org/TR/2001/REC-SVG-20010904/DTD/svg10.dtd">
<svg version="1.0" xmlns="http://www.w3.org/2000/svg"
 width="1500.000000pt" height="1500.000000pt" viewBox="0 0 1500.000000 1500.000000"
 preserveAspectRatio="xMidYMid meet">

<g transform="translate(0.000000,1500.000000) scale(0.100000,-0.100000)"
fill="#000000" stroke="none">
<path d="M6825 13999 c-881 -65 -1670 -278 -2440 -659 -843 -417 -1567 -991
-2160 -1715 -1766 -2154 -1964 -5201 -492 -7565 606 -973 1476 -1786 2476
-2313 787 -416 1573 -649 2491 -739 183 -18 935 -18 1125 0 851 80 1594 290
2335 658 427 213 781 436 1128 711 l93 74 34 -30 c47 -41 80 -45 284 -37 361
14 828 64 898 97 43 21 83 81 83 125 0 32 -44 244 -51 244 -8 0 -19 -87 -19
-150 0 -63 -17 -118 -40 -130 -11 -6 -108 -13 -217 -15 -109 -2 -294 -13 -412
-24 -118 -12 -248 -21 -288 -21 -72 0 -143 19 -143 38 0 5 35 40 78 78 42 38
158 148 257 245 173 170 182 178 228 183 26 3 67 9 92 12 36 4 45 9 45 25 0
17 -7 19 -60 19 -33 0 -60 2 -60 5 0 3 51 65 113 138 171 200 335 413 441 573
46 69 49 72 94 77 168 17 931 120 947 127 25 11 -298 3 -642 -16 -145 -8 -267
-14 -272 -14 -5 0 32 69 82 153 51 84 129 223 175 309 l83 157 47 6 c118 16
492 78 489 82 -2 2 -113 -2 -246 -8 -134 -6 -245 -8 -248 -6 -2 3 23 68 57
144 132 292 278 704 345 968 16 61 32 114 36 119 13 15 181 33 218 24 22 -6
36 -18 46 -41 8 -18 28 -157 45 -311 52 -466 127 -1066 134 -1073 3 -3 9 -3
13 0 6 7 -73 1461 -83 1510 -9 44 -34 49 -194 39 -80 -5 -146 -9 -147 -8 -1 1
11 67 28 146 135 670 163 1403 79 2085 -76 609 -228 1180 -465 1743 -43 102
-65 135 -65 98 0 -58 -95 -183 -171 -225 l-43 -25 60 60 c69 67 95 112 119
204 16 60 13 123 -4 104 -5 -5 -16 -40 -26 -79 -35 -133 -95 -218 -195 -274
-41 -23 -40 -21 27 45 38 38 78 89 90 114 29 66 78 263 69 285 -11 30 -21 8
-56 -125 -37 -140 -49 -168 -95 -225 -41 -51 -96 -90 -170 -120 -51 -20 -55
-24 -34 -30 40 -12 88 -66 105 -117 28 -86 17 -172 -66 -485 l-75 -283 -127 0
c-71 0 -128 4 -128 9 0 4 32 127 70 272 78 292 91 383 67 441 -10 23 -24 39
-39 43 -13 3 -81 4 -152 3 l-130 -3 -92 -350 c-51 -192 -97 -363 -101 -380
l-9 -30 -127 -3 c-88 -2 -127 1 -127 9 0 6 53 209 119 452 65 243 171 641 237
885 l118 443 298 -3 c164 -2 298 -1 298 1 0 2 -34 61 -77 130 -1010 1661
-2709 2787 -4623 3065 -327 47 -483 58 -885 61 -209 2 -434 -1 -500 -6z m-185
-3251 c0 -2 -15 -57 -34 -123 l-33 -120 -162 -3 c-88 -1 -161 -4 -161 -5 -1
-14 -408 -1529 -412 -1532 -3 -3 -61 -4 -130 -3 l-125 3 203 760 c112 418 203
763 203 768 1 4 -71 7 -158 7 l-159 0 24 88 c13 48 29 104 35 125 l10 37 449
0 c248 0 450 -1 450 -2z m77 -5 c-3 -5 -19 -61 -37 -125 -27 -98 -36 -118 -51
-118 -11 0 -19 2 -19 5 0 9 62 230 67 238 2 4 13 7 24 7 11 0 18 -3 16 -7z
m73 0 c0 -4 -14 -60 -32 -125 -26 -94 -36 -118 -50 -118 -24 0 -23 5 14 137
25 91 35 113 50 113 10 0 18 -3 18 -7z m974 -80 c-13 -49 -29 -105 -35 -125
l-10 -38 -289 0 c-160 0 -290 -2 -290 -4 0 -3 -29 -114 -65 -248 -36 -134 -65
-249 -65 -255 0 -10 57 -13 253 -13 l254 0 -22 -82 c-13 -46 -28 -102 -34
-125 l-12 -43 -256 -2 -257 -3 -61 -230 c-34 -126 -65 -242 -69 -257 l-6 -28
285 0 c213 0 285 -3 285 -12 0 -6 -9 -44 -19 -82 -11 -39 -25 -90 -31 -113
l-11 -43 -414 0 c-325 0 -415 3 -415 13 0 6 12 55 26 107 14 52 76 286 139
520 62 234 157 586 209 782 53 196 96 360 96 363 0 3 189 5 419 5 l419 0 -24
-87z m96 80 c0 -5 -14 -61 -32 -125 -26 -96 -35 -118 -50 -118 -10 0 -18 3
-18 6 0 4 14 60 32 125 25 98 34 119 50 119 10 0 18 -3 18 -7z m80 2 c0 -15
-64 -231 -70 -238 -4 -5 -15 -7 -23 -5 -12 2 -11 15 9 83 12 44 27 99 34 123
8 31 16 42 30 42 11 0 20 -2 20 -5z m806 -22 c67 -36 101 -70 131 -131 42 -85
38 -165 -17 -357 -23 -82 -49 -163 -57 -178 -36 -70 -131 -151 -218 -185 l-47
-19 31 -13 c71 -29 105 -103 105 -225 0 -67 -12 -123 -73 -350 -40 -148 -74
-278 -77 -287 -5 -16 -20 -18 -135 -18 -120 0 -130 1 -125 18 3 9 36 130 73
267 61 228 67 259 68 348 0 136 -1 137 -186 137 -76 0 -139 -2 -139 -5 0 -3
-45 -174 -100 -381 -55 -206 -100 -377 -100 -380 0 -2 -59 -4 -131 -4 -119 0
-130 1 -125 18 3 9 109 406 236 882 127 476 233 871 235 878 4 10 65 12 307
10 290 -3 305 -4 344 -25z m1211 -1 c58 -31 111 -86 135 -141 34 -76 28 -160
-22 -341 -23 -85 -49 -168 -57 -184 -37 -71 -144 -160 -227 -186 l-38 -12 40
-24 c52 -31 78 -73 92 -152 15 -83 10 -107 -76 -436 -41 -154 -74 -281 -74
-283 0 -2 -59 -3 -131 -3 -119 0 -130 1 -125 18 2 9 35 130 73 267 61 228 67
259 68 348 0 136 -1 137 -185 137 -123 0 -138 -2 -142 -17 -3 -10 -49 -183
-103 -385 l-98 -368 -129 0 c-118 0 -129 1 -124 18 2 9 59 222 126 472 263
983 341 1276 345 1288 4 10 65 12 307 10 292 -3 304 -4 345 -26z m893 18 c0
-6 -92 -353 -204 -773 -112 -419 -219 -817 -237 -884 l-32 -123 -129 0 c-70 0
-128 2 -128 4 0 3 74 283 166 623 91 340 197 737 236 883 38 146 72 268 75
273 7 11 253 9 253 -3z m80 3 c-1 -5 -108 -406 -238 -893 -220 -816 -240 -885
-260 -888 -15 -2 -20 1 -17 10 5 15 475 1769 475 1775 0 1 9 3 20 3 11 0 20
-3 20 -7z m75 -13 c-3 -10 -107 -395 -230 -854 -123 -459 -229 -853 -235 -876
-8 -30 -16 -40 -31 -40 -15 0 -19 5 -15 18 4 15 174 648 392 1467 41 154 77
286 79 293 3 6 14 12 25 12 17 0 20 -4 15 -20z m991 -2 c-3 -13 -18 -69 -33
-125 l-28 -103 -290 -2 -289 -3 -67 -250 c-37 -137 -65 -253 -62 -257 2 -5
117 -8 255 -8 196 0 249 -3 246 -12 -3 -7 -18 -64 -34 -125 l-29 -113 -257 0
-257 0 -10 -37 c-5 -21 -35 -133 -65 -249 -31 -116 -56 -217 -56 -223 0 -8 81
-11 285 -11 l285 0 -6 -27 c-4 -16 -19 -71 -33 -123 l-27 -95 -418 -3 c-394
-2 -417 -1 -412 15 3 10 68 257 146 548 210 787 320 1198 325 1213 3 9 97 12
421 12 l416 0 -6 -22z m81 8 c-3 -8 -11 -34 -17 -58 -39 -149 -51 -178 -71
-178 -14 0 -19 5 -16 14 3 8 11 34 17 58 39 149 51 178 71 178 14 0 19 -5 16
-14z m53 -83 c-15 -54 -30 -110 -34 -125 -4 -19 -13 -28 -26 -28 -11 0 -20 2
-20 5 0 9 62 230 67 238 2 4 12 7 22 7 17 0 16 -7 -9 -97z m-3148 10 c45 -48
70 -109 76 -181 4 -58 -2 -91 -42 -237 -55 -201 -83 -250 -185 -323 -65 -47
-67 -39 -4 20 30 29 65 71 78 93 36 62 107 326 113 421 4 73 2 88 -22 140 -15
33 -39 72 -54 88 -21 22 -22 26 -7 18 11 -6 32 -23 47 -39z m1209 0 c42 -45
71 -112 77 -178 4 -50 -3 -89 -38 -220 -58 -219 -86 -268 -194 -347 -62 -45
-63 -33 -1 23 30 29 66 70 79 93 14 22 45 119 71 215 41 152 47 184 43 245 -5
76 -26 129 -75 186 -21 25 -23 30 -8 22 11 -5 32 -23 46 -39z m-1289 0 c91
-94 100 -188 37 -417 -44 -163 -63 -207 -111 -261 -31 -36 -109 -95 -124 -95
-5 0 15 22 43 49 80 77 98 112 149 296 56 201 61 278 25 360 -12 28 -34 62
-48 78 -15 15 -22 27 -17 27 6 0 26 -17 46 -37z m1211 -2 c54 -60 70 -98 75
-181 4 -65 -1 -95 -38 -230 -23 -85 -51 -172 -62 -193 -27 -54 -88 -118 -140
-146 l-43 -24 58 59 c76 77 92 108 144 297 65 237 59 340 -25 430 -14 15 -21
27 -15 27 6 0 27 -18 46 -39z m-3796 -214 c-6 -17 -397 -1474 -397 -1482 0 -3
-9 -5 -20 -5 -11 0 -20 3 -20 6 0 3 54 207 120 452 65 246 153 575 195 732 42
157 78 291 80 298 2 6 14 12 26 12 13 0 19 -5 16 -13z m73 1 c0 -7 -47 -188
-105 -403 -58 -214 -147 -546 -197 -737 -84 -316 -95 -348 -114 -348 -19 0 -8
48 176 734 109 404 200 741 203 750 7 19 37 22 37 4z m814 -14 c-4 -14 -30
-111 -59 -217 -46 -169 -55 -192 -73 -195 -15 -2 -20 1 -17 10 2 7 23 83 45
168 69 260 69 260 91 260 16 0 18 -5 13 -26z m76 12 c0 -8 -20 -88 -44 -178
-24 -90 -49 -182 -56 -205 -8 -32 -16 -43 -30 -43 -11 0 -20 1 -20 3 0 5 110
410 115 425 6 17 35 15 35 -2z m4140 3 c0 -5 -25 -104 -57 -220 -47 -176 -59
-209 -75 -209 -10 0 -18 3 -18 7 0 10 101 384 111 410 8 23 39 33 39 12z m78
-6 c-3 -10 -29 -107 -58 -217 -49 -181 -67 -222 -87 -202 -6 6 15 94 78 323
27 96 35 113 51 113 15 0 19 -5 16 -17z m-3908 -469 c0 -4 -14 -60 -32 -125
-25 -98 -34 -119 -50 -119 -10 0 -18 3 -18 7 0 3 14 60 31 125 26 97 35 118
50 118 11 0 19 -3 19 -6z m75 -16 c-52 -200 -61 -223 -82 -226 l-22 -3 20 73
c50 182 49 178 69 178 16 0 19 -5 15 -22z m4111 -100 c-29 -109 -35 -123 -56
-126 -17 -3 -21 0 -17 11 3 8 18 61 33 118 31 122 30 119 54 119 17 0 16 -9
-14 -122z m104 110 c0 -6 -9 -44 -19 -82 -11 -39 -25 -90 -31 -113 -8 -33 -15
-43 -32 -43 -16 0 -19 4 -14 23 3 12 18 68 33 125 22 82 30 102 45 102 10 0
18 -5 18 -12z m-3165 -192 c58 -99 52 -173 -46 -538 -61 -232 -76 -278 -91
-278 -10 0 -18 4 -18 9 0 5 34 136 76 292 65 244 75 296 76 371 1 78 -2 94
-28 147 -24 47 -26 58 -12 50 9 -5 29 -29 43 -53z m101 -49 c28 -85 15 -178
-68 -487 -66 -245 -76 -275 -95 -278 -21 -3 -21 -1 13 125 120 444 126 474
122 563 -3 70 -9 95 -31 134 -35 63 -34 67 8 26 19 -19 42 -55 51 -83z m1130
7 c30 -80 17 -177 -66 -491 -62 -235 -78 -283 -92 -283 -10 0 -18 5 -18 11 0
7 33 132 72 278 70 257 73 270 73 381 0 108 -2 118 -28 165 l-28 50 35 -34
c20 -19 43 -54 52 -77z m75 3 c35 -83 24 -171 -64 -497 -68 -253 -76 -275 -97
-278 -16 -3 -21 0 -18 10 3 7 38 135 79 283 67 248 73 278 73 370 1 87 -2 107
-23 150 -14 28 -27 55 -29 60 -3 6 9 -3 26 -19 17 -15 40 -51 53 -79z m2983
45 c59 -90 58 -163 -8 -412 -108 -414 -107 -410 -127 -410 -11 0 -19 3 -19 6
0 4 35 135 77 293 66 246 76 298 77 371 1 76 -2 93 -29 147 -25 50 -27 60 -13
52 10 -6 29 -27 42 -47z m-97 26 c46 -51 58 -89 58 -183 0 -79 -9 -121 -68
-345 -88 -329 -84 -320 -108 -320 -15 0 -19 5 -15 18 3 9 38 136 77 282 66
241 72 274 73 365 1 89 -2 106 -25 153 -28 56 -25 66 8 30z m-5907 -124 c0 -3
-26 -100 -57 -216 -52 -192 -70 -235 -90 -214 -3 3 20 103 52 221 49 182 61
215 76 215 11 0 19 -3 19 -6z m78 -6 c-3 -7 -29 -103 -58 -213 -30 -110 -57
-204 -61 -209 -4 -5 -14 -6 -22 -3 -12 5 -7 34 29 169 75 276 72 268 95 268
13 0 19 -5 17 -12z m1069 -1 c-3 -7 -47 -172 -98 -365 -78 -294 -97 -352 -111
-352 -10 0 -18 5 -18 11 0 10 173 671 185 707 2 6 14 12 26 12 13 0 19 -5 16
-13z m73 1 c0 -7 -42 -170 -94 -363 -83 -311 -95 -350 -114 -353 -19 -3 -20 0
-12 30 125 471 183 684 187 691 7 12 33 8 33 -5z m1130 0 c1 -7 -41 -172 -92
-365 -77 -294 -96 -353 -110 -353 -10 0 -18 6 -18 13 0 11 174 676 185 705 2
6 11 12 20 12 8 0 15 -6 15 -12z m80 3 c0 -9 -144 -557 -176 -668 -11 -42 -19
-53 -35 -53 -13 0 -19 5 -16 13 2 6 46 171 98 365 79 297 96 352 111 352 10 0
18 -4 18 -9z m1785 -3 c-2 -7 -27 -98 -55 -203 -28 -104 -53 -198 -56 -207 -3
-10 -14 -18 -25 -18 -15 0 -19 5 -15 18 3 9 28 103 56 207 62 232 55 215 79
215 12 0 19 -5 16 -12z m75 5 c0 -5 -25 -104 -56 -220 -48 -179 -60 -213 -76
-213 -10 0 -18 3 -18 7 0 4 26 103 57 220 47 179 59 213 75 213 10 0 18 -3 18
-7z m1070 0 c0 -7 -150 -577 -177 -670 -11 -41 -19 -53 -34 -53 -15 0 -19 5
-15 18 3 9 46 173 97 365 79 296 95 347 111 347 10 0 18 -3 18 -7z m76 -10
c-3 -10 -46 -174 -97 -365 -79 -298 -95 -348 -111 -348 -10 0 -18 3 -18 7 0 7
150 577 177 671 11 40 19 52 34 52 15 0 19 -5 15 -17z m-4990 -485 c-51 -199
-61 -228 -78 -228 -23 0 -23 0 12 130 17 61 30 113 30 115 0 3 10 5 21 5 17 0
20 -4 15 -22z m84 20 c-1 -2 -16 -57 -34 -123 -27 -102 -35 -120 -53 -123 -21
-3 -21 -2 8 110 39 147 35 138 59 138 11 0 20 -1 20 -2z m4119 -70 c-50 -183
-49 -178 -70 -178 -15 0 -19 5 -15 18 3 9 17 60 31 112 34 126 32 120 54 120
19 0 19 -1 0 -72z m91 62 c0 -5 -13 -59 -30 -120 -16 -61 -30 -113 -30 -115 0
-3 -10 -5 -21 -5 -17 0 -20 4 -15 23 3 12 18 68 32 125 22 83 30 102 46 102
10 0 18 -4 18 -10z m-3366 -728 c52 -36 79 -90 79 -155 -1 -57 -191 -742 -225
-811 -31 -61 -111 -134 -186 -169 -63 -30 -73 -32 -182 -32 -136 0 -158 5
-205 47 -92 80 -90 110 40 564 58 205 115 384 129 408 32 56 102 118 168 152
43 23 71 29 153 33 124 7 179 -1 229 -37z m-1473 3 c55 -39 82 -92 82 -158 -1
-52 -183 -716 -220 -802 -28 -62 -112 -141 -190 -177 -122 -58 -315 -50 -389
14 -48 42 -67 83 -67 143 0 54 186 723 223 803 39 82 131 162 228 198 26 10
77 13 164 11 123 -2 128 -3 169 -32z m889 29 c0 -16 -45 -161 -53 -171 -7 -9
-43 -13 -117 -13 l-108 0 -20 -67 c-11 -38 -76 -266 -145 -508 l-124 -440
-102 -3 c-55 -1 -101 1 -101 5 0 4 64 233 143 508 l143 500 -111 5 c-60 3
-110 7 -110 10 1 3 11 44 24 93 l24 87 328 0 c181 0 329 -3 329 -6z m1319 -28
c43 -30 73 -77 85 -132 8 -36 -18 -160 -38 -184 -7 -8 -19 -31 -26 -50 -21
-55 -87 -146 -122 -171 -18 -12 -35 -24 -37 -26 -2 -1 8 -12 22 -23 61 -48 59
-118 -8 -353 -24 -84 -48 -171 -55 -194 l-11 -43 -99 0 c-65 0 -100 4 -100 11
0 6 22 90 50 187 58 209 65 248 51 285 l-11 28 -101 -3 -102 -3 -71 -250 -72
-250 -103 -3 c-81 -2 -102 0 -99 10 3 7 81 280 174 606 l168 593 231 -3 232
-3 42 -29z m696 15 c48 -22 79 -54 100 -103 24 -60 22 -86 -26 -250 l-20 -68
-99 0 c-55 0 -100 3 -100 8 0 4 12 45 25 91 14 47 25 93 25 102 0 37 -28 49
-110 49 -69 0 -82 -3 -108 -25 -50 -42 -97 -244 -65 -276 7 -7 53 -15 105 -19
51 -3 104 -12 118 -20 78 -41 120 -102 120 -172 0 -59 -54 -260 -85 -314 -34
-59 -107 -121 -183 -157 -116 -54 -312 -49 -383 10 -62 52 -83 135 -58 228 6
22 19 70 30 108 l20 67 99 0 c55 0 100 -3 100 -7 0 -5 -12 -46 -25 -92 -43
-145 -35 -161 77 -161 95 0 127 21 156 101 29 81 40 190 21 206 -8 6 -53 13
-100 15 -70 3 -94 9 -132 31 -108 64 -128 139 -82 309 35 129 56 175 106 232
44 50 88 80 157 107 67 26 260 26 317 0z m726 5 c66 -28 119 -108 119 -179 0
-48 -63 -258 -93 -309 -36 -63 -108 -125 -184 -160 -59 -28 -78 -32 -189 -36
l-124 -5 -13 -46 c-8 -25 -40 -139 -72 -253 l-59 -208 -98 0 c-80 0 -98 3 -98
15 0 15 329 1174 337 1188 2 4 102 7 222 7 166 0 227 -3 252 -14z m757 -19
c23 -15 51 -45 62 -67 37 -72 29 -117 -85 -516 -113 -395 -129 -433 -209 -499
-77 -63 -148 -88 -261 -93 -118 -5 -172 7 -221 50 -48 42 -67 83 -67 143 0 55
190 740 225 809 33 65 105 133 182 172 l71 35 131 -3 c123 -3 133 -5 172 -31z
m720 7 c82 -41 119 -121 101 -218 -20 -110 -138 -308 -204 -344 -19 -10 -19
-11 7 -31 35 -28 52 -82 44 -140 -3 -25 -31 -137 -62 -248 l-57 -203 -99 0
c-70 0 -98 3 -98 12 0 7 23 94 52 193 49 173 61 249 46 288 -7 16 -20 17 -110
15 l-103 -3 -70 -250 -70 -250 -104 -3 c-81 -2 -102 0 -99 10 3 7 80 280 173
606 l168 592 217 0 c212 0 217 0 268 -26z m880 -46 c-37 -130 -21 -118 -150
-118 l-113 0 -144 -510 -145 -510 -98 0 c-79 0 -98 3 -98 14 0 11 217 787 276
989 5 15 -5 17 -105 17 -77 0 -111 4 -111 11 0 10 31 123 45 167 3 9 79 12
334 12 l329 0 -20 -72z m-7300 35 c5 -16 38 -107 72 -203 34 -96 65 -181 69
-188 6 -10 61 43 185 176 97 104 186 201 197 216 19 24 26 26 105 26 46 0 84
-2 84 -5 0 -2 -41 -147 -90 -322 -50 -175 -125 -438 -167 -585 l-76 -268 -83
0 c-62 0 -82 3 -79 13 13 37 245 858 245 867 0 5 -3 10 -8 10 -4 0 -92 -92
-196 -205 -104 -113 -190 -205 -191 -205 -1 0 -35 95 -75 210 -40 116 -75 210
-79 210 -3 0 -55 -174 -115 -388 -61 -213 -118 -415 -128 -449 l-19 -63 -81 0
-80 0 7 28 c6 25 309 1095 321 1135 5 14 18 17 89 17 82 0 83 0 93 -27z"/>
<path d="M8289 10498 c0 -2 -31 -115 -68 -253 -38 -137 -65 -254 -61 -259 5
-4 71 -6 147 -4 210 6 229 22 292 249 46 162 48 184 25 218 -29 40 -73 51
-209 51 -69 0 -125 -1 -126 -2z m61 -50 c0 -7 -25 -105 -55 -216 -30 -112 -55
-206 -55 -208 0 -2 -9 -4 -20 -4 -11 0 -20 3 -20 6 0 10 112 418 117 427 7 12
33 8 33 -5z m76 -10 c-92 -356 -111 -418 -128 -418 -10 0 -18 5 -18 11 0 5 25
104 57 220 49 182 59 209 76 209 15 0 18 -5 13 -22z"/>
<path d="M9495 10488 c-25 -68 -131 -495 -125 -502 5 -4 71 -6 147 -4 211 6
229 22 292 251 23 82 41 159 41 171 0 31 -28 66 -66 82 -45 19 -282 20 -289 2z
m65 -39 c0 -5 -25 -104 -57 -220 -47 -176 -59 -209 -75 -209 -10 0 -18 3 -18
6 0 11 101 386 111 412 9 22 39 31 39 11z m78 -6 c-3 -10 -29 -107 -58 -217
-49 -181 -67 -222 -87 -202 -6 6 15 94 78 323 27 96 35 113 51 113 15 0 19 -5
16 -17z"/>
<path d="M8040 8305 c-14 -7 -31 -24 -38 -37 -18 -35 -204 -698 -204 -727 0
-37 27 -51 101 -51 73 0 105 12 132 50 10 14 64 184 119 378 96 336 100 355
85 378 -14 22 -22 24 -93 24 -46 -1 -87 -6 -102 -15z"/>
<path d="M6569 8305 c-15 -8 -33 -31 -42 -52 -25 -64 -199 -686 -199 -712 0
-37 28 -51 101 -51 73 0 105 12 132 50 10 14 64 184 119 378 97 337 101 354
86 378 -15 22 -23 24 -94 24 -47 -1 -87 -6 -103 -15z"/>
<path d="M8711 8175 c-22 -79 -41 -152 -41 -161 0 -14 12 -16 100 -12 96 4
102 5 131 34 23 23 38 56 60 133 28 96 29 104 14 127 -15 23 -21 24 -119 24
l-103 0 -42 -145z"/>
<path d="M10162 8168 c-24 -84 -43 -157 -42 -162 0 -4 42 -7 93 -4 150 6 162
18 213 211 26 98 23 101 -112 105 l-109 2 -43 -152z"/>
<path d="M10953 8301 c-17 -11 -34 -28 -37 -38 -15 -50 -196 -684 -201 -706
-5 -18 -1 -31 14 -46 17 -17 33 -21 89 -21 74 0 125 22 142 62 6 13 55 180
110 372 95 329 100 350 85 372 -14 22 -22 24 -93 24 -58 0 -85 -5 -109 -19z"/>
<path d="M11628 8168 c-25 -84 -43 -156 -41 -160 7 -14 162 -9 196 6 50 21 66
46 98 156 27 95 28 105 14 127 -15 22 -22 23 -119 23 l-103 0 -45 -152z"/>
<path d="M12437 10250 c-37 -137 -67 -254 -67 -260 0 -13 243 -13 291 0 22 6
53 28 76 53 34 38 43 58 81 200 l43 158 -18 37 c-25 50 -61 61 -214 61 l-126
1 -66 -250z m127 183 c-4 -16 -30 -113 -58 -218 -40 -147 -55 -191 -69 -193
-24 -5 -23 7 27 190 24 90 49 182 55 206 9 31 17 42 32 42 16 0 18 -4 13 -27z
m76 11 c0 -12 -82 -328 -106 -406 -3 -10 -14 -18 -25 -18 -15 0 -19 5 -15 18
3 9 28 103 56 207 28 105 52 196 55 203 6 18 35 15 35 -4z"/>
<path d="M14050 4261 c0 -42 61 -1073 70 -1194 12 -148 7 -186 -26 -218 -27
-25 -16 -24 -574 -55 -290 -16 -318 -16 -353 -1 -51 22 -71 71 -92 219 -24
177 -11 220 105 333 69 67 147 171 137 182 -12 12 -309 -200 -366 -261 l-24
-25 13 -293 c12 -312 16 -332 65 -344 13 -3 165 10 337 30 172 20 435 49 585
65 149 16 281 34 292 41 11 6 23 21 26 33 3 12 -32 345 -79 740 -48 394 -86
728 -86 742 0 16 -6 25 -15 25 -8 0 -15 -9 -15 -19z"/>
</g>
</svg>
